<?xml version="1.0" standalone="no"?>
<!DOCTYPE svg PUBLIC "-//W3C//DTD SVG 20010904//EN"
 "http://www.w3.org/TR/2001/REC-SVG-20010904/DTD/svg10.dtd">
<svg version="1.0" xmlns="http://www.w3.org/2000/svg"
 width="223.000000pt" height="223.000000pt" viewBox="0 0 223.000000 223.000000"
 preserveAspectRatio="xMidYMid meet">
<metadata>
Created by potrace 1.11, written by Peter Selinger 2001-2013
</metadata>
<g transform="translate(0.000000,223.000000) scale(0.100000,-0.100000)"
fill="#000000" stroke="none">
<path d="M0 1115 l0 -1115 1115 0 1115 0 0 1115 0 1115 -1115 0 -1115 0 0
-1115z m2057 433 c63 -21 68 -25 71 -55 2 -23 -3 -35 -18 -46 -20 -14 -27 -14
-63 -1 -96 34 -270 33 -336 -1 -46 -23 -81 -72 -81 -111 0 -79 48 -118 190
-154 191 -47 265 -81 308 -140 38 -51 49 -157 22 -210 -6 -10 -27 -16 -65 -18
l-56 -3 16 25 c25 37 24 109 0 136 -31 34 -68 49 -218 91 -76 22 -155 48 -176
59 -98 50 -137 115 -129 219 8 111 86 195 210 227 77 20 239 10 325 -18z
m-1397 2 c24 -24 25 -39 6 -66 -14 -18 -26 -19 -255 -15 l-241 3 0 -151 0
-151 222 -2 223 -3 10 -29 c8 -24 6 -31 -14 -47 -21 -17 -42 -19 -237 -19
l-213 0 -3 -122 -3 -121 -48 -1 -47 -1 0 354 c0 316 2 356 17 373 15 17 37 18
290 18 260 0 274 -1 293 -20z m238 -229 c9 -5 55 -59 102 -120 47 -61 90 -110
95 -110 6 0 44 43 85 96 99 126 115 143 139 143 11 0 27 -7 35 -16 33 -32 19
-60 -90 -184 -58 -67 -104 -126 -101 -133 3 -7 44 -59 92 -117 118 -141 120
-145 107 -175 -15 -31 -42 -33 -43 -2 -2 86 -15 102 -90 111 -48 6 -58 11 -92
51 -21 25 -42 45 -47 45 -4 0 -34 -32 -65 -70 -31 -39 -64 -70 -73 -70 -8 0
-12 3 -9 6 10 11 -12 42 -32 46 -16 2 -8 16 45 83 35 43 64 85 64 92 0 7 -45
66 -100 132 -103 123 -117 153 -84 185 17 18 37 20 62 7z m725 -523 c51 -19
58 -23 42 -32 -24 -15 -64 -49 -45 -40 13 7 13 5 2 -8 -11 -14 -18 -15 -50 -4
-20 7 -44 24 -52 39 -13 23 -13 28 4 46 24 26 25 26 99 -1z m-115 -224 c5 -34
-21 -48 -49 -25 -20 16 -22 21 -10 35 19 23 55 16 59 -10z"/>
</g>
</svg>
